<?xml version="1.0" standalone="no"?><!DOCTYPE svg PUBLIC "-//W3C//DTD SVG 1.1//EN" "http://www.w3.org/Graphics/SVG/1.1/DTD/svg11.dtd"><svg class="icon" width="200px" height="200.00px" viewBox="0 0 1024 1024" version="1.1" xmlns="http://www.w3.org/2000/svg"><path fill="#28beb3" d="M590.9 500.4h129.5c110.6 0 200.6-90 200.6-200.7S831 99 720.4 99s-200.7 90-200.7 200.7v129.5c0.1 39.4 32 71.2 71.2 71.2z m-23.1-200.6c0-84.2 68.5-152.7 152.7-152.7 84.2 0 152.6 68.5 152.6 152.7s-68.5 152.7-152.6 152.7H590.9c-12.7 0-23.1-10.4-23.1-23.1V299.8zM296.5 500.4H426c39.2 0 71.1-31.9 71.1-71.1V299.8c0-110.6-90-200.7-200.6-200.7s-200.7 90-200.7 200.7 90.1 200.6 200.7 200.6z m0-353.3c84.2 0 152.6 68.5 152.6 152.7v129.5c0 12.7-10.4 23.1-23.1 23.1H296.5c-84.2 0-152.7-68.5-152.7-152.7s68.5-152.6 152.7-152.6zM426.1 523.1H296.5c-110.6 0-200.7 90-200.7 200.7s90 200.7 200.7 200.7c110.6 0 200.6-90 200.6-200.7V594.2c0.1-39.2-31.8-71.1-71-71.1z m23.1 200.7c0 84.2-68.5 152.7-152.6 152.7-84.2 0-152.7-68.5-152.7-152.7s68.5-152.7 152.7-152.7h129.5c12.7 0 23.1 10.4 23.1 23.1v129.6zM720.5 523.3h-76.3c-13.3 0-24 10.7-24 24s10.7 24 24 24h76.3c84.2 0 152.6 68.5 152.6 152.7s-68.5 152.7-152.6 152.7c-84.2 0-152.7-68.5-152.7-152.7v-82.4c0-3.3 0.1-7.5 0.3-12.5 1.2-38 0.8-73.6-18-93-8-8.2-18.3-12.6-29.8-12.6-13.3 0-24 10.7-24 24 0 11.9 8.7 21.9 20.2 23.7 1.1 2.5 2.7 8.1 3.6 19 1 12.3 0.5 26.2 0.2 37.4-0.2 5.3-0.3 10-0.3 14V724c0 110.6 90 200.7 200.7 200.7 110.6 0 200.6-90 200.6-200.7-0.2-110.7-90.2-200.7-200.8-200.7z"  /></svg>