<?xml version="1.0" standalone="no"?><!DOCTYPE svg PUBLIC "-//W3C//DTD SVG 1.1//EN" "http://www.w3.org/Graphics/SVG/1.1/DTD/svg11.dtd"><svg class="icon" width="200px" height="200.00px" viewBox="0 0 1024 1024" version="1.1" xmlns="http://www.w3.org/2000/svg"><path fill="#28beb3" d="M877.463771 73.607314C829.999543 26.143086 766.893714 0 699.821714 0c-67.106743 0-130.177829 26.143086-177.607314 73.607314-53.178514 53.141943-79.285029 126.464-72.4992 200.464457L41.678629 756.463543c-10.322286 10.285714-16.036571 23.963429-16.036571 38.500571-0.036571 14.571886 5.642971 28.286171 15.963429 38.606629l25.000229 25.000229-12.072229 12.072229c-35.035429 35.035429-35.035429 92.072229 0 127.1424 17.536 17.464686 40.535771 26.177829 63.5008 26.177829 22.999771 0 45.999543-8.749714 63.5008-26.2144l-25.857829-25.857829c-20.714057 20.714057-54.500571 20.714057-75.285943 0-20.785371-20.785371-20.785371-54.606629 0-75.392l12.072229-12.072229 25.000229 25.000229c10.285714 10.322286 24 15.963429 38.535314 15.963429 14.606629 0 28.320914-5.714286 36.214857-13.893486L676.999314 501.357714c7.606857 0.6784 15.285029 1.034971 22.893714 1.034971 67.072 0 130.143086-26.143086 177.570743-73.570743C975.3216 330.8928 975.3216 171.536457 877.463771 73.607314zM157.070629 845.6064l-51.5712-51.5712 45.571657-53.893486 59.856457 59.856457L157.070629 845.6064zM238.928457 776.285257l-64.142629-64.142629 312.285257-368.963657 58.464914 58.464914 62.357943 62.357943L238.928457 776.285257zM825.749943 377.106286c-39.643429 39.643429-96.213943 57.892571-151.356343 49.963886l-150.392686-150.392686c-8.036571-55.535543 10.0352-111.464229 49.929143-151.356343C607.572114 91.679086 652.2496 73.142857 699.821714 73.142857c47.535543 0 92.286171 18.536229 125.928229 52.178286C895.107657 194.750171 895.107657 307.679086 825.749943 377.106286z" /></svg>