<?xml version="1.0" standalone="no"?><!DOCTYPE svg PUBLIC "-//W3C//DTD SVG 1.1//EN" "http://www.w3.org/Graphics/SVG/1.1/DTD/svg11.dtd"><svg t="1568552580482" class="icon" viewBox="0 0 1024 1024" version="1.1" xmlns="http://www.w3.org/2000/svg" p-id="31454" xmlns:xlink="http://www.w3.org/1999/xlink" width="200" height="200"><defs><style type="text/css">@font-face { font-weight: 400; font-style: normal; font-family: Inter-Loom; src: url("https://cdn.loom.com/assets/fonts/inter/Inter-UI-Regular.woff2") format("woff2"); }
@font-face { font-weight: 400; font-style: italic; font-family: Inter-Loom; src: url("https://cdn.loom.com/assets/fonts/inter/Inter-UI-Italic.woff2") format("woff2"); }
@font-face { font-weight: 500; font-style: normal; font-family: Inter-Loom; src: url("https://cdn.loom.com/assets/fonts/inter/Inter-UI-Medium.woff2") format("woff2"); }
@font-face { font-weight: 500; font-style: italic; font-family: Inter-Loom; src: url("https://cdn.loom.com/assets/fonts/inter/Inter-UI-MediumItalic.woff2") format("woff2"); }
@font-face { font-weight: 700; font-style: normal; font-family: Inter-Loom; src: url("https://cdn.loom.com/assets/fonts/inter/Inter-UI-Bold.woff2") format("woff2"); }
@font-face { font-weight: 700; font-style: italic; font-family: Inter-Loom; src: url("https://cdn.loom.com/assets/fonts/inter/Inter-UI-BoldItalic.woff2") format("woff2"); }
@font-face { font-weight: 900; font-style: normal; font-family: Inter-Loom; src: url("https://cdn.loom.com/assets/fonts/inter/Inter-UI-Black.woff2") format("woff2"); }
@font-face { font-weight: 900; font-style: italic; font-family: Inter-Loom; src: url("https://cdn.loom.com/assets/fonts/inter/Inter-UI-BlackItalic.woff2") format("woff2"); }
</style></defs><path d="M325 389.6L98.7 979.3 688.4 753 325 389.6zM569.8 745h-1.5L235 763.7l38.5-100.2 249.9-4.7 75.2 75.2-28.8 11z m-95.5-135.4L292.8 613l51.3-133.7 130.2 130.3zM215.4 814.8l201.8-11.3-231.6 88.8 29.8-77.5z" fill="#28beb3" p-id="31455"></path><path d="M292 354.6L65.7 944.3 655.4 718 292 354.6zM536.8 710h-1.5L202 728.7l38.5-100.2 249.9-4.7 75.2 75.2-28.8 11z m-95.5-135.4L259.8 578l51.3-133.7 130.2 130.3zM182.4 779.8l201.8-11.3-231.6 88.8 29.8-77.5zM735.7 634.4c-3.6 0-7.1-0.8-10.5-2.3-7.7-2.8-52.3-15.3-91.8-26-13.3-3.6-21.2-17.3-17.6-30.6 3.6-13.3 17.3-21.2 30.6-17.6C739.5 583 745 586 747.9 587.6c12.1 6.7 16.4 21.9 9.7 34-4.6 8.2-13.1 12.8-21.9 12.8z m-10.2-2.2z m-1.9-0.9z" fill="#28beb3" p-id="31456"></path><path d="M814.5 641.1c-7.9 7.3-20.7 7.3-28.5 0s-7.9-19.1 0-26.4c7.9-7.3 20.7-7.3 28.5 0 7.9 7.3 7.9 19.1 0 26.4z" fill="#28beb3" p-id="31457"></path><path d="M421.8 405.2c-10.6 0-20.5-6.8-23.8-17.5-11.3-36.1-24.7-77-27.9-84.4-6.1-11.3-2.6-25.6 8.4-32.8 11.6-7.5 27.1-4.2 34.6 7.4 2 3 5.3 8.1 32.6 94.8 4.1 13.2-3.2 27.2-16.3 31.4-2.6 0.8-5.1 1.1-7.6 1.1z m-50.6-100.1z m-1.3-2.2z" fill="#28beb3" p-id="31458"></path><path d="M357.9 218.6c-7.9 7.3-7.9 19.1 0 26.4 7.9 7.3 20.7 7.3 28.5 0 7.9-7.3 7.9-19.1 0-26.4-7.8-7.3-20.6-7.3-28.5 0z" fill="#28beb3" p-id="31459"></path><path d="M468.6 448.5c-5.2 0-10.5-1.6-15-5-11-8.3-13.2-24-4.9-35 51-67.7 66.3-131 46.9-193.5-4.1-13.2 3.3-27.2 16.4-31.3 13.2-4.1 27.2 3.3 31.3 16.4 12.6 40.6 13.8 82.1 3.4 123.4-9.5 37.8-29.1 76.5-58.1 115-4.9 6.6-12.4 10-20 10zM580 551.5c-8.2 0-16.3-4-21-11.5-7.5-11.6-4.1-27.1 7.5-34.6 41.3-26.6 82.6-44.5 123-53.2 43.7-9.4 87.6-8.4 130.5 3 13.3 3.6 21.3 17.3 17.7 30.6s-17.3 21.3-30.6 17.7c-69.2-18.5-139.1-4.1-213.5 43.9-4.3 2.8-9 4.1-13.6 4.1zM520 496.1c-6.7 0-13.4-2.7-18.4-8-9.4-10.1-8.8-26 1.4-35.3l155.8-144.2c10.1-9.4 26-8.8 35.3 1.4 9.4 10.1 8.8 26-1.4 35.3L537 489.4c-4.8 4.5-10.9 6.7-17 6.7z" fill="#28beb3" p-id="31460"></path><path d="M472.2 169.9l-6.6-22.4c-0.7-2.4-2.6-4.3-5.1-5.1l-23.7-7.7c-6.3-2.1-7.4-9.9-1.7-13.3l21-12.7c2.2-1.3 3.6-3.6 3.7-6.1l0.6-23.2c0.2-6.2 8-9.6 13.2-5.7l19.6 14.6c2.1 1.5 4.8 2.1 7.4 1.3l24.1-6.6c6.4-1.8 12.3 4 9.9 9.9l-8.9 21.7c-0.9 2.3-0.6 4.9 0.9 6.9l14.3 19.1c3.8 5.1-0.4 12.1-7.1 11.7l-25.1-1.2c-2.7-0.1-5.2 1-6.8 2.9l-15.2 18.5c-4.3 5-12.8 3.4-14.5-2.6z" fill="#28beb3" p-id="31461"></path><path d="M886 552.8l-6.6-22.4c-0.7-2.4-2.6-4.3-5.1-5.1l-23.7-7.7c-6.3-2.1-7.4-9.9-1.7-13.3l21-12.7c2.2-1.3 3.6-3.6 3.7-6.1l0.6-23.2c0.2-6.2 8-9.6 13.2-5.7l19.6 14.6c2.1 1.5 4.8 2.1 7.4 1.3l24.1-6.6c6.4-1.8 12.3 4 9.9 9.9l-8.9 21.7c-0.9 2.3-0.6 4.9 0.9 6.9l14.3 19.1c3.8 5.1-0.4 12.1-7.1 11.7l-25.1-1.2c-2.7-0.1-5.2 1-6.8 2.9l-15.2 18.5c-4.3 4.9-12.8 3.4-14.5-2.6z" fill="#28beb3" p-id="31462"></path><path d="M679.5 432.7c-10.3 0-20-6.4-23.6-16.7-4.6-13 2.3-27.3 15.3-31.9 90.6-31.9 96.9-32.5 100.2-32.8 13.7-1.4 26 8.7 27.3 22.4 1.3 13.2-7.9 25-20.8 27.1-7.9 2-51.7 16.9-90.2 30.5-2.7 0.9-5.5 1.4-8.2 1.4z m96.9-31.7c-0.1 0-0.1 0 0 0-0.1 0-0.1 0 0 0z" fill="#28beb3" p-id="31463"></path><path d="M857.4 357.5c-1.5 10.2-11.7 17.3-22.8 15.9s-18.7-10.9-17.2-21.1c1.5-10.2 11.7-17.3 22.8-15.9 11 1.4 18.7 10.9 17.2 21.1z" fill="#28beb3" p-id="31464"></path><path d="M589.7 349.6c-3.2 0-6.4-0.6-9.5-1.9-12.8-5.2-18.9-19.9-13.6-32.6 14.4-35 30.4-75.1 32.7-82.9 2.6-12.6 14.4-21.3 27.4-19.8 13.7 1.6 23.6 14 22 27.7-0.4 3.8-1.1 9.6-35.8 94-4 9.7-13.4 15.5-23.2 15.5z m9.3-115.2z" fill="#28beb3" p-id="31465"></path><path d="M643.9 160c-11 1.4-18.7 10.9-17.2 21.1 1.5 10.2 11.7 17.3 22.8 15.9 11-1.4 18.7-10.9 17.2-21.1-1.5-10.2-11.7-17.3-22.8-15.9z" fill="#28beb3" p-id="31466"></path><path d="M720.5 315.1l-6.6-22.4c-0.7-2.4-2.6-4.3-5.1-5.1l-23.7-7.7c-6.3-2.1-7.4-9.9-1.7-13.3l21-12.7c2.2-1.3 3.6-3.6 3.7-6.1l0.6-23.2c0.2-6.2 8-9.6 13.2-5.7l19.6 14.6c2.1 1.5 4.8 2.1 7.4 1.3l24.1-6.6c6.4-1.8 12.3 4 9.9 9.9l-8.9 21.7c-0.9 2.3-0.6 4.9 0.9 6.9l14.3 19.1c3.8 5.1-0.4 12.1-7.1 11.7l-25.1-1.2c-2.7-0.1-5.2 1-6.8 2.9L735 317.7c-4.4 5-12.8 3.4-14.5-2.6z" fill="#28beb3" p-id="31467"></path></svg>